<mxfile modified="2024-04-17T18:44:24.666Z" host="app.diagrams.net" agent="Mozilla/5.0 (Windows NT 10.0; Win64; x64) AppleWebKit/537.36 (KHTML, like Gecko) Chrome/123.0.0.0 Safari/537.36" etag="HpeZ5mU-06irqQAiNeo7" version="24.2.5" type="device" pages="2">
  <diagram id="JccEKncFMNsV5DX2vRDm" name="context">
    <mxGraphModel dx="2440" dy="1301" grid="1" gridSize="10" guides="1" tooltips="1" connect="1" arrows="1" fold="1" page="1" pageScale="1" pageWidth="850" pageHeight="1100" math="0" shadow="0">
      <root>
        <mxCell id="0" />
        <mxCell id="1" parent="0" />
        <mxCell id="8wUJox-Qz0NuMlm-shv1-1" value="&lt;font style=&quot;font-size: 14px&quot; color=&quot;#303030&quot;&gt;&lt;b&gt;Software scope&lt;/b&gt;&lt;/font&gt;" style="rounded=1;whiteSpace=wrap;html=1;labelBackgroundColor=none;strokeColor=#454545;fillColor=none;fontSize=16;fontColor=#797979;align=left;dashed=1;verticalAlign=bottom;spacing=10;spacingLeft=10;arcSize=7;container=1;recursiveResize=0;strokeWidth=3;perimeterSpacing=0;glass=0;" parent="1" vertex="1">
          <mxGeometry x="65" y="339" width="360" height="210" as="geometry" />
        </mxCell>
        <mxCell id="8wUJox-Qz0NuMlm-shv1-2" value="&lt;font&gt;Application&lt;br&gt;&lt;/font&gt;&lt;br&gt;&lt;span style=&quot;font-size: 12px&quot;&gt;&lt;i&gt;Mobile application&lt;/i&gt;&lt;/span&gt;" style="rounded=1;whiteSpace=wrap;html=1;fontSize=16;align=center;labelBackgroundColor=none;fillColor=#d5e8d4;strokeColor=#82b366;" parent="8wUJox-Qz0NuMlm-shv1-1" vertex="1">
          <mxGeometry x="69.5" y="36" width="220" height="138" as="geometry" />
        </mxCell>
        <mxCell id="8wUJox-Qz0NuMlm-shv1-3" value="{Name of API}&lt;br&gt;&lt;br&gt;&lt;span style=&quot;font-size: 12px&quot;&gt;&lt;i&gt;Backend services&lt;/i&gt;&lt;/span&gt;&lt;br&gt;" style="rounded=1;whiteSpace=wrap;html=1;fontSize=16;align=center;labelBackgroundColor=none;fillColor=#e1d5e7;strokeColor=#9673a6;" parent="1" vertex="1">
          <mxGeometry x="134.5" y="644.5" width="220" height="138" as="geometry" />
        </mxCell>
        <mxCell id="8wUJox-Qz0NuMlm-shv1-4" value="Uses" style="endArrow=classic;html=1;fontSize=16;fontColor=#797979;strokeColor=#797979;labelBackgroundColor=#ffffff;exitX=0.5;exitY=1;exitDx=0;exitDy=0;" parent="1" source="8wUJox-Qz0NuMlm-shv1-7" target="8wUJox-Qz0NuMlm-shv1-2" edge="1">
          <mxGeometry x="-0.0949" width="50" height="50" relative="1" as="geometry">
            <mxPoint x="-75.5" y="374.5" as="sourcePoint" />
            <mxPoint x="-25.5" y="324.5" as="targetPoint" />
            <mxPoint as="offset" />
          </mxGeometry>
        </mxCell>
        <mxCell id="8wUJox-Qz0NuMlm-shv1-5" value="Uses" style="endArrow=classic;html=1;fontSize=16;fontColor=#797979;strokeColor=#797979;labelBackgroundColor=#ffffff;exitX=0.5;exitY=1;exitDx=0;exitDy=0;entryX=0.5;entryY=0;entryDx=0;entryDy=0;" parent="1" source="8wUJox-Qz0NuMlm-shv1-2" target="8wUJox-Qz0NuMlm-shv1-3" edge="1">
          <mxGeometry x="0.0152" width="50" height="50" relative="1" as="geometry">
            <mxPoint x="254.5" y="232.5" as="sourcePoint" />
            <mxPoint x="254.5" y="380.5" as="targetPoint" />
            <mxPoint as="offset" />
          </mxGeometry>
        </mxCell>
        <mxCell id="8wUJox-Qz0NuMlm-shv1-6" value="" style="group" parent="1" vertex="1" connectable="0">
          <mxGeometry x="134.5" y="30" width="220" height="208" as="geometry" />
        </mxCell>
        <mxCell id="8wUJox-Qz0NuMlm-shv1-7" value="{Type of user}&lt;br&gt;&lt;br&gt;&lt;span style=&quot;font-size: 12px&quot;&gt;&lt;i&gt;Principal user of the software&lt;/i&gt;&lt;/span&gt;&lt;br&gt;" style="rounded=1;whiteSpace=wrap;html=1;fontSize=16;align=center;labelBackgroundColor=none;fillColor=#dae8fc;strokeColor=#6c8ebf;arcSize=29;" parent="8wUJox-Qz0NuMlm-shv1-6" vertex="1">
          <mxGeometry y="70" width="220" height="138" as="geometry" />
        </mxCell>
        <mxCell id="8wUJox-Qz0NuMlm-shv1-8" value="" style="ellipse;whiteSpace=wrap;html=1;aspect=fixed;strokeColor=#6c8ebf;fillColor=#dae8fc;" parent="8wUJox-Qz0NuMlm-shv1-6" vertex="1">
          <mxGeometry x="70" width="80" height="80" as="geometry" />
        </mxCell>
      </root>
    </mxGraphModel>
  </diagram>
  <diagram id="23keoDKwSeH5_crJ2NHb" name="structure">
    <mxGraphModel dx="2074" dy="1106" grid="1" gridSize="10" guides="1" tooltips="1" connect="1" arrows="1" fold="1" page="1" pageScale="1" pageWidth="850" pageHeight="1100" math="0" shadow="0">
      <root>
        <mxCell id="5_3vtczx-Nh2g0p2zj_m-0" />
        <mxCell id="5_3vtczx-Nh2g0p2zj_m-1" parent="5_3vtczx-Nh2g0p2zj_m-0" />
        <mxCell id="5_3vtczx-Nh2g0p2zj_m-2" value="Application - Mobile application structure" style="rounded=1;whiteSpace=wrap;html=1;fillColor=none;fontSize=16;fontColor=#4D4D4D;dashed=1;strokeColor=#A6A6A6;verticalAlign=top;movable=1;resizable=1;rotatable=1;deletable=1;editable=1;connectable=1;spacing=5;" parent="5_3vtczx-Nh2g0p2zj_m-1" vertex="1">
          <mxGeometry x="12" y="5" width="598" height="435" as="geometry" />
        </mxCell>
        <mxCell id="5_3vtczx-Nh2g0p2zj_m-4" value="Business services" style="rounded=1;whiteSpace=wrap;html=1;fillColor=#dae8fc;strokeColor=#6c8ebf;" parent="5_3vtczx-Nh2g0p2zj_m-1" vertex="1">
          <mxGeometry x="42" y="125" width="538" height="60" as="geometry" />
        </mxCell>
        <mxCell id="5_3vtczx-Nh2g0p2zj_m-5" value="https requests" style="edgeStyle=orthogonalEdgeStyle;rounded=0;orthogonalLoop=1;jettySize=auto;html=1;exitX=0.5;exitY=1;exitDx=0;exitDy=0;entryX=0.625;entryY=0.2;entryDx=0;entryDy=0;entryPerimeter=0;" parent="5_3vtczx-Nh2g0p2zj_m-1" source="5_3vtczx-Nh2g0p2zj_m-7" target="5_3vtczx-Nh2g0p2zj_m-13" edge="1">
          <mxGeometry x="0.0228" relative="1" as="geometry">
            <mxPoint as="offset" />
            <Array as="points">
              <mxPoint x="131" y="291" />
            </Array>
          </mxGeometry>
        </mxCell>
        <mxCell id="chVADVizeC6GpLuaTFaY-1" value="caches" style="edgeStyle=orthogonalEdgeStyle;rounded=0;orthogonalLoop=1;jettySize=auto;html=1;exitX=0.5;exitY=1;exitDx=0;exitDy=0;entryX=0.5;entryY=0;entryDx=0;entryDy=0;" parent="5_3vtczx-Nh2g0p2zj_m-1" source="5_3vtczx-Nh2g0p2zj_m-7" target="chVADVizeC6GpLuaTFaY-0" edge="1">
          <mxGeometry relative="1" as="geometry" />
        </mxCell>
        <mxCell id="5_3vtczx-Nh2g0p2zj_m-7" value="API endpoints" style="rounded=1;whiteSpace=wrap;html=1;fillColor=#e1d5e7;strokeColor=#9673a6;" parent="5_3vtczx-Nh2g0p2zj_m-1" vertex="1">
          <mxGeometry x="41.5" y="195" width="180" height="60" as="geometry" />
        </mxCell>
        <mxCell id="5_3vtczx-Nh2g0p2zj_m-8" value="app settings" style="edgeStyle=orthogonalEdgeStyle;rounded=0;orthogonalLoop=1;jettySize=auto;html=1;exitX=0.5;exitY=1;exitDx=0;exitDy=0;entryX=0.5;entryY=0;entryDx=0;entryDy=0;" parent="5_3vtczx-Nh2g0p2zj_m-1" source="5_3vtczx-Nh2g0p2zj_m-10" target="5_3vtczx-Nh2g0p2zj_m-18" edge="1">
          <mxGeometry relative="1" as="geometry">
            <mxPoint x="438.5" y="328" as="targetPoint" />
            <Array as="points" />
          </mxGeometry>
        </mxCell>
        <mxCell id="5_3vtczx-Nh2g0p2zj_m-10" value="Application settings&lt;br&gt;" style="rounded=1;whiteSpace=wrap;html=1;fillColor=#e1d5e7;strokeColor=#9673a6;" parent="5_3vtczx-Nh2g0p2zj_m-1" vertex="1">
          <mxGeometry x="420" y="196" width="157" height="60" as="geometry" />
        </mxCell>
        <mxCell id="5_3vtczx-Nh2g0p2zj_m-13" value="API" style="ellipse;shape=cloud;whiteSpace=wrap;html=1;fillColor=#f5f5f5;strokeColor=#666666;fontColor=#333333;" parent="5_3vtczx-Nh2g0p2zj_m-1" vertex="1">
          <mxGeometry x="56" y="327" width="120" height="80" as="geometry" />
        </mxCell>
        <mxCell id="5_3vtczx-Nh2g0p2zj_m-17" value="User interface" style="rounded=1;whiteSpace=wrap;html=1;fillColor=#d5e8d4;strokeColor=#82b366;" parent="5_3vtczx-Nh2g0p2zj_m-1" vertex="1">
          <mxGeometry x="42" y="55" width="538" height="60" as="geometry" />
        </mxCell>
        <mxCell id="5_3vtczx-Nh2g0p2zj_m-18" value="Secure&lt;br&gt;storage&lt;br&gt;" style="shape=cylinder;whiteSpace=wrap;html=1;boundedLbl=1;backgroundOutline=1;fillColor=#fff2cc;strokeColor=#d6b656;" parent="5_3vtczx-Nh2g0p2zj_m-1" vertex="1">
          <mxGeometry x="457.5" y="310" width="82" height="98" as="geometry" />
        </mxCell>
        <mxCell id="chVADVizeC6GpLuaTFaY-0" value="Internal&lt;br&gt;storage&lt;br&gt;" style="shape=cylinder;whiteSpace=wrap;html=1;boundedLbl=1;backgroundOutline=1;fillColor=#fff2cc;strokeColor=#d6b656;" parent="5_3vtczx-Nh2g0p2zj_m-1" vertex="1">
          <mxGeometry x="300" y="310" width="82" height="98" as="geometry" />
        </mxCell>
      </root>
    </mxGraphModel>
  </diagram>
</mxfile>
